<svg xmlns="http://www.w3.org/2000/svg" viewBox="0 0 40 40"><path transform="matrix(.0989 0 0 .0854 -2.896 .233)" d="M367.5 232c-5.6 0-11.2.7-16.5 2.2v-2.7c0-13-10.5-23.5-23.5-23.5h-272c-13 0-23.5 10.5-23.5 23.5v112c0 32.6 15.2 64.3 40 83.7v12.3c0 13 10.5 23.5 23.5 23.5h192c13 0 23.5-10.5 23.5-23.5v-12.3c17.5-13.7 30.2-33.6 36.2-55.5 6.5 2.2 13.3 3.3 20.3 3.3 35 0 63.5-28.5 63.5-63.5v-16c0-35-28.5-63.5-63.5-63.5zM351 295.5c0-9 7.4-16.5 16.5-16.5 9 0 16.5 7.4 16.5 16.5v16c0 9-7.4 16.5-16.5 16.5-9 0-16.5-7.4-16.5-16.5v-16zM287.5 448h-192c-4.7 0-8.5-3.8-8.5-8.5V431h209v8.5c0 4.7-3.8 8.5-8.5 8.5zM336 343.5c0 28.4-13.4 56-35 72.5H82c-21.6-16.6-35-44-35-72.5v-112c0-4.7 3.8-8.5 8.5-8.5h272c4.7 0 8.5 3.8 8.5 8.5v112zm80-32c0 26.7-21.8 48.5-48.5 48.5-6 0-11.8-1-17.4-3.2.8-4.4 1-8.8 1-13.3v-5.2c5 3 10.6 4.7 16.6 4.7 17.4 0 31.5-14 31.5-31.5v-16c0-17.4-14-31.5-31.4-31.5-6 0-11.7 1.7-16.5 4.7V250c5.4-2 11-3 16.6-3 26.7 0 48.5 21.8 48.5 48.5v16zM186.4 148.7c-8.2 7.5-18.4 16.8-18.4 34.8 0 4 3.4 7.5 7.5 7.5 4 0 7.5-3.4 7.5-7.5 0-11.4 6-16.8 13.6-23.8 8.2-7.5 18.4-17 18.4-34.8 0-18-10.2-27.6-18.4-35C189 83 183 77.5 183 66s6-17 13.6-23.8c8.2-7.6 18.4-17 18.4-35 0-4-3.4-7.4-7.5-7.4-4 0-7.5 3.4-7.5 7.5 0 11.4-6 17-13.6 23.8-8.2 7.5-18.4 17-18.4 35 0 17.8 10.2 27.2 18.4 34.7 7.6 7 13.6 12.5 13.6 24 0 11.2-6 16.7-13.6 23.7zm48 0c-8.2 7.5-18.4 16.8-18.4 34.8 0 4 3.4 7.5 7.5 7.5 4 0 7.5-3.4 7.5-7.5 0-11.4 6-16.8 13.6-23.8 8.2-7.5 18.4-17 18.4-34.8 0-18-10.2-27.6-18.4-35C237 83 231 77.5 231 66c0-4.2-3.4-7.5-7.5-7.5-4 0-7.5 3.3-7.5 7.5 0 18 10.2 27.3 18.4 34.8 7.6 7 13.6 12.5 13.6 24 0 11.2-6 16.7-13.6 23.7zm-96 0c-8.2 7.5-18.4 16.8-18.4 34.8 0 4 3.4 7.5 7.5 7.5 4 0 7.5-3.4 7.5-7.5 0-11.4 6-16.8 13.6-23.8 8.2-7.5 18.4-17 18.4-34.8 0-18-10.2-27.6-18.4-35C141 83 135 77.5 135 66c0-4.2-3.4-7.5-7.5-7.5-4 0-7.5 3.3-7.5 7.5 0 18 10.2 27.3 18.4 34.8 7.6 7 13.6 12.5 13.6 24 0 11.2-6 16.7-13.6 23.7z" stroke-width="5.4" fill="#3f95ea" stroke="#3f95ea" stroke-linejoin="round"/></svg>