<svg xmlns="http://www.w3.org/2000/svg" viewBox="0 0 44 40"><path d="M41.5 7.2H40V5h-7V7h-3V2.7c0-1.3-1-2.5-2.4-2.5H16.4C15 .2 14 1.2 14 2.7v4.5h-3V5H4V7H2.4C1.3 7.2.2 8.2.2 9.6v27.8c0 1.3 1 2.4 2.3 2.4h39c1.3 0 2.3-1 2.3-2.4V9.6c0-1.3-1-2.4-2.3-2.4zm-7.2-.8h4.4v.8h-4.4v-.8zM15.5 2.7c0-.5.4-1 1-1h11c.6 0 1 .5 1 1v4.5h-13V2.7zm-1.4 6h22.5v29.5h-29V8.8H14zM5.4 6.5h4.4v.8H5.3v-.8zm-3.6 31V9.6c0-.5.4-.8.8-.8H6v29.4H2.6c-.4 0-.8-.3-.8-.8zm40.6 0c0 .4-.4.8-.8.8H38V8.8h3.5c.4 0 .8.3.8.8v27.8z" fill="#3f95ea" stroke="#3f95ea" stroke-width=".5"/></svg>